/* XPM */
static char *result[] = {
/* columns rows colors chars-per-pixel */
"80 80 144 2 ",
"   c white",
".  c #63C74D",
"X  c black",
"o  c #FEFFFF",
"O  c #FFFEFF",
"+  c #FFFFFE",
"@  c #808080",
"#  c #3E8948",
"$  c #63C84D",
"%  c #1F4424",
"&  c #429049",
"*  c #5FC04C",
"=  c #3E8A49",
"-  c #439149",
";  c #3F8A49",
":  c #5EBF4C",
">  c gray12",
",  c gray88",
"<  c #37793F",
"1  c #071009",
"2  c #50A84A",
"3  c #1F4524",
"4  c #081109",
"5  c #3D8848",
"6  c gray50",
"7  c #36783F",
"8  c #64C84D",
"9  c #DFDFDF",
"0  c #51A84B",
"q  c #1E1E1E",
"w  c gray44",
"e  c #202020",
"r  c #E2E2E2",
"t  c #63C64D",
"y  c #3E8949",
"u  c #733E39",
"i  c gray56",
"p  c #070F08",
"a  c gray89",
"s  c #377A40",
"d  c #391F1C",
"f  c #743E3A",
"g  c #E1E1E1",
"h  c #101010",
"j  c #1B3C20",
"k  c #408D48",
"l  c #000001",
"z  c #040804",
"x  c #EFEFEF",
"c  c #4EA44A",
"v  c #753F3A",
"b  c #1D1D1D",
"n  c #3E8A48",
"m  c #3A8144",
"M  c #723D39",
"N  c #234D28",
"B  c #3F8B49",
"V  c gray11",
"C  c #7E7E7E",
"Z  c #63C74C",
"A  c #7F453A",
"S  c #3F8C4A",
"D  c #53AC4B",
"F  c #61C34D",
"G  c #818181",
"H  c #3A1F1D",
"J  c #FBFBFB",
"K  c #D97743",
"L  c #3F2732",
"P  c gray75",
"I  c #5AB94C",
"U  c #070405",
"Y  c #479849",
"T  c #CB6F42",
"R  c #37232C",
"E  c #0C0706",
"W  c #0E0807",
"Q  c #071008",
"!  c #408D4A",
"~  c gray23",
"^  c #663733",
"/  c #1B1B1B",
"(  c #1B0F08",
")  c #A55A3E",
"_  c #BD683B",
"`  c #377940",
"'  c #080506",
"]  c #010201",
"[  c #1F1419",
"{  c #2F6736",
"}  c #1B1116",
"|  c gray25",
" . c gray77",
".. c #040203",
"X. c #653632",
"o. c #102212",
"O. c #000100",
"+. c #DA7844",
"@. c #040404",
"#. c #442A32",
"$. c gray6",
"%. c #1E1418",
"&. c #306A38",
"*. c #E4E4E4",
"=. c #6C3B38",
"-. c #78413B",
";. c #5FC14C",
":. c #6C3A36",
">. c #301E26",
",. c #593336",
"<. c #1D100E",
"1. c #6F3D39",
"2. c #140C0B",
"3. c gray94",
"4. c #9E563D",
"5. c #321B19",
"6. c #0E2010",
"7. c #51A94A",
"8. c #3B201E",
"9. c #BF6941",
"0. c #412320",
"q. c #3E262E",
"w. c #A75A3F",
"e. c #3C3C3C",
"r. c #58302C",
"t. c #4E2C2E",
"y. c #140B08",
"u. c #B2613A",
"i. c #5C3435",
"p. c #80453A",
"a. c #2C191B",
"s. c #8C4C3C",
"d. c #412933",
"f. c #3C2327",
"g. c #562E2B",
"h. c #A45A3E",
"j. c #CD7042",
"k. c #190E08",
"l. c #914F36",
"z. c #703D33",
"x. c #0F0A0C",
"c. c #623736",
"v. c #AB5D3F",
"b. c #D17342",
/* pixels */
"                                                                                                                                                                ",
"                                          O                                           O                                                                         ",
"          +                                 + O                         o                                             O               +                         ",
"                                                                        o       O             +                                                                 ",
"    O                                                   o                                               + +                             O                       ",
"                                                                      +     +                                 +                                                 ",
"          +           o                                                                                     o     o         O                                   ",
"            +   O                   o           +                                                                                                               ",
"                                                                                                                                          +                     ",
"                                                O   +                                                             o                   O   o                     ",
"                        o         o             +                                                                             O     o         +                 ",
"                                                            O                                                   +   O o                               O o       ",
"                                                                                                                          O                                     ",
"                                                                                                                                                                ",
"                            +     o           +                     J a 9 , , , , , , , , , , , , , , , , 9 a J                                                 ",
"                                                                    a ~ q > > > > > > > > > > > > > > > > q ~ a                                                 ",
"                                                      +             r q X X X X X l l X X X X X X X X X X X q r                                               o ",
"                                                      P C @ @ @ @ G w h X o.3 % % % % % % % % % % % % 3 o.X h w G @ 6 i 3.                                    O ",
"                            +       O                 6 X X X X X X X X X 3 ! B ; ; ; ; ; ; ; ; ; ; B ! 3 X X X X X X / ,                                       ",
"                                                J *.a w X ] p 1 1 1 1 1 p N B ; & & & & & & & & & & ; ; N p 1 1 1 z X q g                                       ",
"                                                a ~ b $.X p &.s < < < < < m # & I * * * * * * * ;.I - # m < < < s j X q g                                       ",
"      o         o                         o     r q X X X Q < B = # # 5 # # 5 & * 8 . . . Z . . 8 * & 5 # # # = S 3 X > *.                                +     ",
"    O   O                             3.i C 6 @ w h X o.3 N m # Y 0 2 2 2 2 2 D F Z . . . . . . . F D 2 2 0 c k B 3 X $.w @ 6 C i x                   O       O ",
"                                      , / X X X l X X 3 ! B # 5 0 8 $ $ $ $ $ $ . . . . . . . . . . $ $ $ 8 * - ; % X X X X X X b g               O             ",
"                                      g q X z 4 4 4 p N ; ; & & D $ . . . . . . . . . . . . . . . . . . . . : - = N p 4 4 4 z X V  .g x                   +     ",
"                    o                 g q X j s 7 7 7 m # & I * F . . . . . . . . . . . . . . . . . . . . . : - # m 7 7 7 s j X @.V b i                         ",
"                                      *.> X 3 S = y y # 5 & * 8 . . . t . . . . . . . . . . . . . . . . . . : & 5 # y y = ! % X X X X 6                         ",
"                                  P 6 w $.X 3 B k c 0 2 2 D F . . . Z . . . . . . . . . . t . . . . . . . . F D 2 2 0 c k n { % j z O.@ +                       ",
"                                  C X X X X % ; - * 8 $ $ $ . . . . . . . . . . . . . . . . . . . . . . . . . $ $ $ 8 * & 5 n k s 4 X G                         ",
"          +                       @ X ] p Q N = - : . . . . . . . . . . . . . . . . . . . . . . . . . . . . . . . . . ;.Y & k = 7 4 X w r a J                   ",
"                                  @ X p &.< m # - : . . . . . . . . . . . . . . . . . . . . . . . . . . . . . . . . . t * * c y 7 4 X h q e.a                   ",
"                      +           @ X 1 s B # 5 & : . . . . . . . . Z . . . . . . t . . . . . . . . . . . . . . . . . . . 8 0 y 7 p X X X q 9                   ",
"                    O             @ X 1 < = Y 0 D F . . . . . . t . . . . . . . . . . . . . . . . . . . . . . . . . . . . 8 0 # m N 3 o.X e 9                   ",
"                      O           @ X 1 < # 0 8 $ . . . . . . . . . . . . . . . . . . . . . . . . . . . . . . . . . . . . 8 0 5 # ; ! 3 X e 9                   ",
"                                  @ X 1 < # 0 $ . . . . . . . . . . . . . . . . . . . . . . . . . . . . . . . . . . . . . $ D & & ; B % X e 9                   ",
"      +                           @ X 1 < # 2 $ . . . . . . . . Z . . . . . . . . . . . . . . t . . . . t . . . . . . . . . F * I & ; % l e 9                   ",
"            +                     @ X 1 < # 2 $ . . . . . . . . . . . . . . . . . . . . . . . . . . . . . . . . . . . . . . . 8 * - = % X e 9                   ",
"                      +           @ X 1 < # 2 $ . . . . . . . . . . . . Z . . . . . . . . . . . . . . . . . . . . . . . . . . . : - = % X e 9                   ",
"                          + O     @ X 1 < # 2 $ . . . . . . . . . . . . . . . . . . . . . . . . . . . . . . . . . . t . . . . . : - = % X e 9                   ",
"                                  @ l 1 < # 2 $ . t . . . . . . . . . . . . . . . . . . . . . . . . . . . . . . . . . . . . . . : - = % X e 9                   ",
"                            O     @ X 1 < # 2 $ . . . . . . . . . . . . . . . . . . . . . . . . . . . . . . . . . . . . . . . . : - = % X e 9 +                 ",
"                                + @ X 1 < # 2 $ . . . . . . . . . . . . . . . . . t . . . . . . . . . . . . . . . . . . . . . 8 * - = % X e 9                   ",
"                                  @ X 1 < # 2 $ . . t . . . . . . . . . . . . . . . . . . . . . . . . . . . . . . . . . . . I 0 c k ; % X e 9                   ",
"  O                               @ l 1 < # 0 8 . . . . t . . . . . . . . . . . . . . t Z . . . . . . . . . . . . . . . . 8 0 5 5 n S 3 X e 9   o               ",
"                +                 @ X 1 < # c * * t . . . . . . . . . . . . . . . . . . . . . . . . . . . . . . . . . t * * c 5 5 s ` j X e 9                   ",
"                O       O         @ X 1 < = k & Y * . . . . . . . . . . . . . . . . . . . . . . . . . . . . . . . . . ;.Y & k n s 6.Q z O.e 9 o               o ",
"  o                               @ X 1 s S n 5 & * 8 $ $ $ . . . . . . . . . . . . . . . . . . . Z . . . . . . . . 8 * & 5 n S ` Q X X X b 9                   ",
"                      +           @ X z j % { n k c 0 7.0 D F . . . . . . . . . . . . . . . . . Z . . . . . . . . I 0 c k n { % j z X | @ i x                   ",
"                                  6 X X X X % S = y y # 5 & * 8 . . . . . . . . . . . . . . . . . . . . . . . . 8 2 5 5 n S % X X X X @     o                   ",
"              O                   i b V @.X j ` 7 7 7 m # - I * : : : : : : : : : : : : * t . . . . . . F : : : * c 5 5 s ` j X @.V b i                         ",
"                                  x ,  ./ X z 4 4 4 Q N ; ; & - - - - - - - - - - - - & Y * . . . . . $ D & - - - k n s 6.1 z X /  .g x                 o       ",
"                                      r V X X X X X X 3 ! ; # 5 # = = = = = = = = = # 5 & * 8 $ $ $ $ 8 7.5 # = = ; S s p X X X b g                             ",
"                                  o   3.i C 6 @ w h X o.3 N m ; { % 3 3 3 3 3 3 3 % { n k c 0 2 2 2 2 0 Y # m N % 3 3 j z X | @ i x         +               +   ",
"                        o                       r q X X X Q < ! % X X X X X X X X X % S = y y y y y y y = B ` Q X X X X X X @                                   ",
"                    o                           a ~ q h X p &.s j X O.U ' ..X X X X j s 7 7 7 7 7 7 7 7 7 ` &.p X h e > > V i                                   ",
"                                                J a r w X ] p 4 z X U >.R } X X X X z 4 4 4 4 4 4 4 4 4 4 4 p ] X w a , , 9 x                                   ",
"                                                      6 X X X X X X ' R L %.X X X l X X X X X X X X X X X X l X X 6                                             ",
"                                                      P 6 w h X X X E t.,.f.%.%.[ [ [ [ } ..X | G 6 6 6 6 6 6 6 C P           o                                 ",
"      O                                                   r q X X X W ^ v ,.L L L L L L R ' X G     O                       +   o                         O     ",
"                                          o               a ~ b $.X W X.v i.#.#.#.#.q.R >.U X @   O                                                             ",
"              +                                           J *.a w X W X.f 1.=.=.=.1.8.U U ] X @           o O                                                   ",
"                                                                G X W X.M u u u u v d X X X X C                                                                 ",
"                                          o O                   @ X y.l.w.s.M u u v d X h w 6 P                                                                 ",
"O                                                               @ X ( _ +.w.M u u v d O.e a             o                                                       ",
"                                                                @ X ( _ +.) M u u v d X > ,                                                                     ",
"                                      o                         @ X ( _ +.) M u u v d X > ,           o                   o                                     ",
"                O                 +         +                   @ X ( _ +.h.1.M u v d X > ,                   O                                                 ",
"                                                          o     @ X ( _ K 9.) 4.-.f d X > ,                                                                     ",
"                  o                     O         +   o         G X ( _ K K K T A f d X e g                           O                                         ",
"                                      o                   J a r w X k.u.T b.K T A f d X /  .g x                                   o                         +   ",
"      +                                                   a e.q h X W z.A v.K T A f d X @.V b i                         o                                       ",
"                              o                   o       r q X X X E X.M ) K T A f d X X O.X @                   +                               O             ",
"                                                  o   P 6 w h X <.H 0.:.M ) K T A u g.d 5.U X | @ i x                                                           ",
"        +                             o               6 X X X X H -.v f M ) +.T A M f v ^ W X X X b g     O                     o                               ",
"        O                 +                     J a r w X ] E E d ^ ^ =.=.4.j.9.A u :.X.r.2.' ..X V  .g x                                       O               ",
"                                  O             a ~ q h X E r.^ H E 2.q.#.c.p.A f f 0.E 2.>.R } X @./ b i     O                                                 ",
"                                                r q l X X W ^ -.H X ' R L ,.f f f v H X ' R d.[ X X X X @                                       o           +   ",
"              +                             P 6 w h X X X U 5.8.<.X ..} %.a.H H H H <.X ..} [ x.X X X X | @ i x                       O                         ",
"                                            C X X X X X X X X X X X X X X X X X X X X X X X X X X X X X X X V 9                                                 ",
"                                  +         6 X X X X X X l X X X X X X X X X X X X X X X X X X l X X l X X > ,                                 +       O       "
};
